<?xml version="1.0" encoding="UTF-8" standalone="no"?>
<!DOCTYPE svg PUBLIC "-//W3C//DTD SVG 1.1//EN"
 "http://www.w3.org/Graphics/SVG/1.1/DTD/svg11.dtd">
<!-- Generated by graphviz version 2.40.1 (20161225.0304)
 -->
<!-- Title: controllers_diagram Pages: 1 -->
<svg width="599pt" height="481pt"
 viewBox="0.00 0.00 599.38 481.00" xmlns="http://www.w3.org/2000/svg" xmlns:xlink="http://www.w3.org/1999/xlink">
<g id="graph0" class="graph" transform="scale(1 1) rotate(0) translate(4 477)">
<title>controllers_diagram</title>
<polygon fill="transparent" stroke="transparent" points="-4,4 -4,-477 595.3755,-477 595.3755,4 -4,4"/>
<!-- _diagram_info -->
<g id="node1" class="node">
<title>_diagram_info</title>
<text text-anchor="start" x="392" y="-458.6" font-family="Times,serif" font-size="13.00" fill="#000000">Controllers diagram</text>
<text text-anchor="start" x="392" y="-445.6" font-family="Times,serif" font-size="13.00" fill="#000000">Date: May 27 2018 &#45; 19:23</text>
<text text-anchor="start" x="392" y="-432.6" font-family="Times,serif" font-size="13.00" fill="#000000">Migration version: 20180526104220</text>
<text text-anchor="start" x="392" y="-419.6" font-family="Times,serif" font-size="13.00" fill="#000000">Generated by RailRoady 1.5.3</text>
<text text-anchor="start" x="392" y="-406.6" font-family="Times,serif" font-size="13.00" fill="#000000">http://railroady.prestonlee.com</text>
</g>
<!-- ApplicationController -->
<g id="node2" class="node">
<title>ApplicationController</title>
<path fill="none" stroke="#000000" d="M300,-.5C300,-.5 415.6416,-.5 415.6416,-.5 421.6416,-.5 427.6416,-6.5 427.6416,-12.5 427.6416,-12.5 427.6416,-94.5 427.6416,-94.5 427.6416,-100.5 421.6416,-106.5 415.6416,-106.5 415.6416,-106.5 300,-106.5 300,-106.5 294,-106.5 288,-100.5 288,-94.5 288,-94.5 288,-12.5 288,-12.5 288,-6.5 294,-.5 300,-.5"/>
<text text-anchor="middle" x="357.8208" y="-91.3" font-family="Times,serif" font-size="14.00" fill="#000000">ApplicationController</text>
<polyline fill="none" stroke="#000000" points="288,-84.5 427.6416,-84.5 "/>
<polyline fill="none" stroke="#000000" points="288,-60.5 427.6416,-60.5 "/>
<polyline fill="none" stroke="#000000" points="288,-36.5 427.6416,-36.5 "/>
<text text-anchor="start" x="296" y="-21.3" font-family="Times,serif" font-size="14.00" fill="#000000">_layout</text>
<text text-anchor="start" x="296" y="-7.3" font-family="Times,serif" font-size="14.00" fill="#000000">current_user</text>
</g>
<!-- SessionController -->
<g id="node3" class="node">
<title>SessionController</title>
<path fill="none" stroke="#000000" d="M12,-224.5C12,-224.5 104.3311,-224.5 104.3311,-224.5 110.3311,-224.5 116.3311,-230.5 116.3311,-236.5 116.3311,-236.5 116.3311,-330.5 116.3311,-330.5 116.3311,-336.5 110.3311,-342.5 104.3311,-342.5 104.3311,-342.5 12,-342.5 12,-342.5 6,-342.5 0,-336.5 0,-330.5 0,-330.5 0,-236.5 0,-236.5 0,-230.5 6,-224.5 12,-224.5"/>
<text text-anchor="middle" x="58.1655" y="-327.3" font-family="Times,serif" font-size="14.00" fill="#000000">SessionController</text>
<polyline fill="none" stroke="#000000" points="0,-320.5 116.3311,-320.5 "/>
<text text-anchor="start" x="8" y="-305.3" font-family="Times,serif" font-size="14.00" fill="#000000">create</text>
<text text-anchor="start" x="8" y="-291.3" font-family="Times,serif" font-size="14.00" fill="#000000">destroy</text>
<text text-anchor="start" x="8" y="-277.3" font-family="Times,serif" font-size="14.00" fill="#000000">new</text>
<polyline fill="none" stroke="#000000" points="0,-270.5 116.3311,-270.5 "/>
<polyline fill="none" stroke="#000000" points="0,-246.5 116.3311,-246.5 "/>
<text text-anchor="start" x="8" y="-231.3" font-family="Times,serif" font-size="14.00" fill="#000000">_layout</text>
</g>
<!-- SharesController -->
<g id="node4" class="node">
<title>SharesController</title>
<path fill="none" stroke="#000000" d="M12,-96.5C12,-96.5 98.8691,-96.5 98.8691,-96.5 104.8691,-96.5 110.8691,-102.5 110.8691,-108.5 110.8691,-108.5 110.8691,-176.5 110.8691,-176.5 110.8691,-182.5 104.8691,-188.5 98.8691,-188.5 98.8691,-188.5 12,-188.5 12,-188.5 6,-188.5 0,-182.5 0,-176.5 0,-176.5 0,-108.5 0,-108.5 0,-102.5 6,-96.5 12,-96.5"/>
<text text-anchor="middle" x="55.4346" y="-173.3" font-family="Times,serif" font-size="14.00" fill="#000000">SharesController</text>
<polyline fill="none" stroke="#000000" points="0,-166.5 110.8691,-166.5 "/>
<polyline fill="none" stroke="#000000" points="0,-142.5 110.8691,-142.5 "/>
<polyline fill="none" stroke="#000000" points="0,-118.5 110.8691,-118.5 "/>
<text text-anchor="start" x="8" y="-103.3" font-family="Times,serif" font-size="14.00" fill="#000000">_layout</text>
</g>
<!-- FriendRequestsController -->
<g id="node5" class="node">
<title>FriendRequestsController</title>
<path fill="none" stroke="#000000" d="M108,-368.5C108,-368.5 244.6484,-368.5 244.6484,-368.5 250.6484,-368.5 256.6484,-374.5 256.6484,-380.5 256.6484,-380.5 256.6484,-460.5 256.6484,-460.5 256.6484,-466.5 250.6484,-472.5 244.6484,-472.5 244.6484,-472.5 108,-472.5 108,-472.5 102,-472.5 96,-466.5 96,-460.5 96,-460.5 96,-380.5 96,-380.5 96,-374.5 102,-368.5 108,-368.5"/>
<text text-anchor="middle" x="176.3242" y="-457.3" font-family="Times,serif" font-size="14.00" fill="#000000">FriendRequestsController</text>
<polyline fill="none" stroke="#000000" points="96,-450.5 256.6484,-450.5 "/>
<text text-anchor="start" x="104" y="-435.3" font-family="Times,serif" font-size="14.00" fill="#000000">create</text>
<text text-anchor="start" x="104" y="-421.3" font-family="Times,serif" font-size="14.00" fill="#000000">destroy</text>
<polyline fill="none" stroke="#000000" points="96,-414.5 256.6484,-414.5 "/>
<polyline fill="none" stroke="#000000" points="96,-390.5 256.6484,-390.5 "/>
<text text-anchor="start" x="104" y="-375.3" font-family="Times,serif" font-size="14.00" fill="#000000">_layout</text>
</g>
<!-- FriendshipsController -->
<g id="node6" class="node">
<title>FriendshipsController</title>
<path fill="none" stroke="#000000" d="M444,-144.5C444,-144.5 558.8828,-144.5 558.8828,-144.5 564.8828,-144.5 570.8828,-150.5 570.8828,-156.5 570.8828,-156.5 570.8828,-236.5 570.8828,-236.5 570.8828,-242.5 564.8828,-248.5 558.8828,-248.5 558.8828,-248.5 444,-248.5 444,-248.5 438,-248.5 432,-242.5 432,-236.5 432,-236.5 432,-156.5 432,-156.5 432,-150.5 438,-144.5 444,-144.5"/>
<text text-anchor="middle" x="501.4414" y="-233.3" font-family="Times,serif" font-size="14.00" fill="#000000">FriendshipsController</text>
<polyline fill="none" stroke="#000000" points="432,-226.5 570.8828,-226.5 "/>
<text text-anchor="start" x="440" y="-211.3" font-family="Times,serif" font-size="14.00" fill="#000000">create</text>
<text text-anchor="start" x="440" y="-197.3" font-family="Times,serif" font-size="14.00" fill="#000000">destroy</text>
<polyline fill="none" stroke="#000000" points="432,-190.5 570.8828,-190.5 "/>
<polyline fill="none" stroke="#000000" points="432,-166.5 570.8828,-166.5 "/>
<text text-anchor="start" x="440" y="-151.3" font-family="Times,serif" font-size="14.00" fill="#000000">_layout</text>
</g>
<!-- NotesController -->
<g id="node7" class="node">
<title>NotesController</title>
<path fill="none" stroke="#000000" d="M156,-112.5C156,-112.5 238.207,-112.5 238.207,-112.5 244.207,-112.5 250.207,-118.5 250.207,-124.5 250.207,-124.5 250.207,-316.5 250.207,-316.5 250.207,-322.5 244.207,-328.5 238.207,-328.5 238.207,-328.5 156,-328.5 156,-328.5 150,-328.5 144,-322.5 144,-316.5 144,-316.5 144,-124.5 144,-124.5 144,-118.5 150,-112.5 156,-112.5"/>
<text text-anchor="middle" x="197.1035" y="-313.3" font-family="Times,serif" font-size="14.00" fill="#000000">NotesController</text>
<polyline fill="none" stroke="#000000" points="144,-306.5 250.207,-306.5 "/>
<text text-anchor="start" x="152" y="-291.3" font-family="Times,serif" font-size="14.00" fill="#000000">update</text>
<text text-anchor="start" x="152" y="-277.3" font-family="Times,serif" font-size="14.00" fill="#000000">create</text>
<text text-anchor="start" x="152" y="-263.3" font-family="Times,serif" font-size="14.00" fill="#000000">destroy</text>
<text text-anchor="start" x="152" y="-249.3" font-family="Times,serif" font-size="14.00" fill="#000000">edit</text>
<text text-anchor="start" x="152" y="-235.3" font-family="Times,serif" font-size="14.00" fill="#000000">index</text>
<text text-anchor="start" x="152" y="-221.3" font-family="Times,serif" font-size="14.00" fill="#000000">new</text>
<text text-anchor="start" x="152" y="-207.3" font-family="Times,serif" font-size="14.00" fill="#000000">show</text>
<text text-anchor="start" x="152" y="-193.3" font-family="Times,serif" font-size="14.00" fill="#000000">collections</text>
<polyline fill="none" stroke="#000000" points="144,-186.5 250.207,-186.5 "/>
<polyline fill="none" stroke="#000000" points="144,-162.5 250.207,-162.5 "/>
<text text-anchor="start" x="152" y="-147.3" font-family="Times,serif" font-size="14.00" fill="#000000">_layout</text>
<text text-anchor="start" x="152" y="-133.3" font-family="Times,serif" font-size="14.00" fill="#000000">note_params</text>
<text text-anchor="start" x="152" y="-119.3" font-family="Times,serif" font-size="14.00" fill="#000000">set_note</text>
</g>
<!-- UsersController -->
<g id="node8" class="node">
<title>UsersController</title>
<path fill="none" stroke="#000000" d="M300,-144.5C300,-144.5 381.4277,-144.5 381.4277,-144.5 387.4277,-144.5 393.4277,-150.5 393.4277,-156.5 393.4277,-156.5 393.4277,-348.5 393.4277,-348.5 393.4277,-354.5 387.4277,-360.5 381.4277,-360.5 381.4277,-360.5 300,-360.5 300,-360.5 294,-360.5 288,-354.5 288,-348.5 288,-348.5 288,-156.5 288,-156.5 288,-150.5 294,-144.5 300,-144.5"/>
<text text-anchor="middle" x="340.7139" y="-345.3" font-family="Times,serif" font-size="14.00" fill="#000000">UsersController</text>
<polyline fill="none" stroke="#000000" points="288,-338.5 393.4277,-338.5 "/>
<text text-anchor="start" x="296" y="-323.3" font-family="Times,serif" font-size="14.00" fill="#000000">update</text>
<text text-anchor="start" x="296" y="-309.3" font-family="Times,serif" font-size="14.00" fill="#000000">destroy</text>
<text text-anchor="start" x="296" y="-295.3" font-family="Times,serif" font-size="14.00" fill="#000000">edit</text>
<text text-anchor="start" x="296" y="-281.3" font-family="Times,serif" font-size="14.00" fill="#000000">index</text>
<text text-anchor="start" x="296" y="-267.3" font-family="Times,serif" font-size="14.00" fill="#000000">make_admin</text>
<text text-anchor="start" x="296" y="-253.3" font-family="Times,serif" font-size="14.00" fill="#000000">new</text>
<text text-anchor="start" x="296" y="-239.3" font-family="Times,serif" font-size="14.00" fill="#000000">show</text>
<text text-anchor="start" x="296" y="-225.3" font-family="Times,serif" font-size="14.00" fill="#000000">create</text>
<polyline fill="none" stroke="#000000" points="288,-218.5 393.4277,-218.5 "/>
<polyline fill="none" stroke="#000000" points="288,-194.5 393.4277,-194.5 "/>
<text text-anchor="start" x="296" y="-179.3" font-family="Times,serif" font-size="14.00" fill="#000000">_layout</text>
<text text-anchor="start" x="296" y="-165.3" font-family="Times,serif" font-size="14.00" fill="#000000">set_user</text>
<text text-anchor="start" x="296" y="-151.3" font-family="Times,serif" font-size="14.00" fill="#000000">user_params</text>
</g>
</g>
</svg>
