<?xml version="1.0" encoding="UTF-8" standalone="no"?>
<!DOCTYPE svg PUBLIC "-//W3C//DTD SVG 1.1//EN"
 "http://www.w3.org/Graphics/SVG/1.1/DTD/svg11.dtd">
<!-- Generated by graphviz version 2.40.1 (20161225.0304)
 -->
<!-- Title: models_diagram Pages: 1 -->
<svg width="620pt" height="240pt"
 viewBox="0.00 0.00 620.08 240.00" xmlns="http://www.w3.org/2000/svg" xmlns:xlink="http://www.w3.org/1999/xlink">
<g id="graph0" class="graph" transform="scale(1 1) rotate(0) translate(4 236)">
<title>models_diagram</title>
<polygon fill="transparent" stroke="transparent" points="-4,4 -4,-236 616.0835,-236 616.0835,4 -4,4"/>
<!-- _diagram_info -->
<g id="node1" class="node">
<title>_diagram_info</title>
<text text-anchor="start" x="8" y="-217.6" font-family="Times,serif" font-size="13.00" fill="#000000">Models diagram</text>
<text text-anchor="start" x="8" y="-204.6" font-family="Times,serif" font-size="13.00" fill="#000000">Date: May 23 2018 &#45; 18:33</text>
<text text-anchor="start" x="8" y="-191.6" font-family="Times,serif" font-size="13.00" fill="#000000">Migration version: 20180522162635</text>
<text text-anchor="start" x="8" y="-178.6" font-family="Times,serif" font-size="13.00" fill="#000000">Generated by RailRoady 1.5.3</text>
<text text-anchor="start" x="8" y="-165.6" font-family="Times,serif" font-size="13.00" fill="#000000">http://railroady.prestonlee.com</text>
</g>
<!-- Note -->
<g id="node2" class="node">
<title>Note</title>
<ellipse fill="none" stroke="#000000" cx="192.6877" cy="-91" rx="27.0958" ry="18"/>
<text text-anchor="middle" x="192.6877" y="-86.8" font-family="Times,serif" font-size="14.00" fill="#000000">Note</text>
</g>
<!-- Collection -->
<g id="node3" class="node">
<title>Collection</title>
<ellipse fill="none" stroke="#000000" cx="192.6877" cy="-18" rx="46.8977" ry="18"/>
<text text-anchor="middle" x="192.6877" y="-13.8" font-family="Times,serif" font-size="14.00" fill="#000000">Collection</text>
</g>
<!-- Note&#45;&gt;Collection -->
<g id="edge1" class="edge">
<title>Note&#45;&gt;Collection</title>
<path fill="none" stroke="#323a4e" d="M192.6877,-62.8688C192.6877,-57.3894 192.6877,-51.6439 192.6877,-46.1634"/>
<polygon fill="#323a4e" stroke="#323a4e" points="192.6878,-62.9551 188.1877,-72.955 192.6878,-67.9551 192.6877,-72.9551 192.6877,-72.9551 192.6877,-72.9551 192.6878,-67.9551 197.1877,-72.9551 192.6878,-62.9551 192.6878,-62.9551"/>
<polygon fill="#323a4e" stroke="#323a4e" points="192.6878,-46.0904 197.1877,-36.0903 192.6878,-41.0904 192.6877,-36.0904 192.6877,-36.0904 192.6877,-36.0904 192.6878,-41.0904 188.1877,-36.0904 192.6878,-46.0904 192.6878,-46.0904"/>
</g>
<!-- Friendship -->
<g id="node4" class="node">
<title>Friendship</title>
<ellipse fill="none" stroke="#000000" cx="285.6877" cy="-91" rx="47.8754" ry="18"/>
<text text-anchor="middle" x="285.6877" y="-86.8" font-family="Times,serif" font-size="14.00" fill="#000000">Friendship</text>
</g>
<!-- ApplicationRecord -->
<g id="node5" class="node">
<title>ApplicationRecord</title>
<ellipse fill="none" stroke="#000000" cx="534.6877" cy="-195.5" rx="77.2916" ry="18"/>
<text text-anchor="middle" x="534.6877" y="-191.3" font-family="Times,serif" font-size="14.00" fill="#000000">ApplicationRecord</text>
</g>
<!-- User -->
<g id="node6" class="node">
<title>User</title>
<ellipse fill="none" stroke="#000000" cx="252.6877" cy="-195.5" rx="27" ry="18"/>
<text text-anchor="middle" x="252.6877" y="-191.3" font-family="Times,serif" font-size="14.00" fill="#000000">User</text>
</g>
<!-- User&#45;&gt;Note -->
<g id="edge2" class="edge">
<title>User&#45;&gt;Note</title>
<path fill="none" stroke="#e48365" d="M238.734,-171.1973C229.3313,-154.8208 216.9485,-133.2541 207.3924,-116.6106"/>
<ellipse fill="none" stroke="#e48365" cx="240.7882" cy="-174.7751" rx="4" ry="4"/>
<polygon fill="#e48365" stroke="#e48365" points="207.3905,-116.6072 206.3137,-105.6943 204.9008,-112.2711 202.4112,-107.935 202.4112,-107.935 202.4112,-107.935 204.9008,-112.2711 198.5087,-110.1756 207.3905,-116.6072 207.3905,-116.6072"/>
</g>
<!-- User&#45;&gt;Friendship -->
<g id="edge3" class="edge">
<title>User&#45;&gt;Friendship</title>
<path fill="none" stroke="#4da35f" d="M256.2469,-169.3106C258.4574,-156.3433 261.8238,-140.5938 266.6877,-127 267.7487,-124.0348 269.016,-121.0111 270.3857,-118.0391"/>
<ellipse fill="none" stroke="#4da35f" cx="255.5886" cy="-173.4298" rx="4" ry="4"/>
<polygon fill="#4da35f" stroke="#4da35f" points="270.506,-117.7987 279.0064,-110.8709 272.7442,-113.3277 274.9824,-108.8566 274.9824,-108.8566 274.9824,-108.8566 272.7442,-113.3277 270.9584,-106.8422 270.506,-117.7987 270.506,-117.7987"/>
</g>
<!-- User&#45;&gt;Friendship -->
<g id="edge5" class="edge">
<title>User&#45;&gt;Friendship</title>
<path fill="none" stroke="#904d3b" d="M260.6988,-170.1316C265.581,-154.6712 271.826,-134.8955 276.8515,-118.9813"/>
<ellipse fill="none" stroke="#904d3b" cx="259.4903" cy="-173.9587" rx="4" ry="4"/>
<polygon fill="#904d3b" stroke="#904d3b" points="276.94,-118.701 284.2425,-110.5203 278.4457,-113.9331 279.9514,-109.1652 279.9514,-109.1652 279.9514,-109.1652 278.4457,-113.9331 275.6602,-107.8101 276.94,-118.701 276.94,-118.701"/>
<text text-anchor="middle" x="328.5085" y="-129.8" font-family="Times,serif" font-size="14.00" fill="#000000">inverse_friendships</text>
</g>
<!-- User&#45;&gt;User -->
<g id="edge4" class="edge">
<title>User&#45;&gt;User</title>
<path fill="none" stroke="#5997e7" d="M288.8078,-200.5868C294.11,-199.7856 297.6877,-198.09 297.6877,-195.5 297.6877,-192.91 294.11,-191.2144 288.8078,-190.4132"/>
<polygon fill="#5997e7" stroke="#5997e7" points="288.5717,-200.5983 278.3623,-196.5961 283.5778,-200.8445 278.5838,-201.0907 278.5838,-201.0907 278.5838,-201.0907 283.5778,-200.8445 278.8054,-205.5852 288.5717,-200.5983 288.5717,-200.5983"/>
<polygon fill="#5997e7" stroke="#5997e7" points="288.5717,-190.4017 278.8054,-185.4148 283.5778,-190.1555 278.5838,-189.9093 278.5838,-189.9093 278.5838,-189.9093 283.5778,-190.1555 278.3623,-194.4039 288.5717,-190.4017 288.5717,-190.4017"/>
<text text-anchor="middle" x="317.1257" y="-191.3" font-family="Times,serif" font-size="14.00" fill="#000000">friends</text>
</g>
<!-- User&#45;&gt;User -->
<g id="edge6" class="edge">
<title>User&#45;&gt;User</title>
<path fill="none" stroke="#9804a9" d="M286.4713,-205.8352C310.6018,-208.5837 336.5637,-205.1387 336.5637,-195.5 336.5637,-185.8613 310.6018,-182.4163 286.4713,-185.1648"/>
<polygon fill="#9804a9" stroke="#9804a9" points="286.2071,-205.7948 277.0053,-199.8301 281.2649,-205.0364 276.3228,-204.2781 276.3228,-204.2781 276.3228,-204.2781 281.2649,-205.0364 275.6403,-208.726 286.2071,-205.7948 286.2071,-205.7948"/>
<polygon fill="#9804a9" stroke="#9804a9" points="286.2071,-185.2052 275.6403,-182.274 281.2649,-185.9636 276.3228,-186.7219 276.3228,-186.7219 276.3228,-186.7219 281.2649,-185.9636 277.0053,-191.1699 286.2071,-185.2052 286.2071,-185.2052"/>
<text text-anchor="middle" x="379.7156" y="-191.3" font-family="Times,serif" font-size="14.00" fill="#000000">inverse_friends</text>
</g>
</g>
</svg>
