<?xml version="1.0" encoding="UTF-8" standalone="no"?>
<!DOCTYPE svg PUBLIC "-//W3C//DTD SVG 1.1//EN"
 "http://www.w3.org/Graphics/SVG/1.1/DTD/svg11.dtd">
<!-- Generated by graphviz version 2.40.1 (20161225.0304)
 -->
<!-- Title: models_diagram Pages: 1 -->
<svg width="963pt" height="240pt"
 viewBox="0.00 0.00 963.08 240.00" xmlns="http://www.w3.org/2000/svg" xmlns:xlink="http://www.w3.org/1999/xlink">
<g id="graph0" class="graph" transform="scale(1 1) rotate(0) translate(4 236)">
<title>models_diagram</title>
<polygon fill="transparent" stroke="transparent" points="-4,4 -4,-236 959.0835,-236 959.0835,4 -4,4"/>
<!-- _diagram_info -->
<g id="node1" class="node">
<title>_diagram_info</title>
<text text-anchor="start" x="8" y="-217.6" font-family="Times,serif" font-size="13.00" fill="#000000">Models diagram</text>
<text text-anchor="start" x="8" y="-204.6" font-family="Times,serif" font-size="13.00" fill="#000000">Date: May 27 2018 &#45; 19:23</text>
<text text-anchor="start" x="8" y="-191.6" font-family="Times,serif" font-size="13.00" fill="#000000">Migration version: 20180526104220</text>
<text text-anchor="start" x="8" y="-178.6" font-family="Times,serif" font-size="13.00" fill="#000000">Generated by RailRoady 1.5.3</text>
<text text-anchor="start" x="8" y="-165.6" font-family="Times,serif" font-size="13.00" fill="#000000">http://railroady.prestonlee.com</text>
</g>
<!-- Note -->
<g id="node2" class="node">
<title>Note</title>
<ellipse fill="none" stroke="#000000" cx="145.6877" cy="-91" rx="27.0958" ry="18"/>
<text text-anchor="middle" x="145.6877" y="-86.8" font-family="Times,serif" font-size="14.00" fill="#000000">Note</text>
</g>
<!-- Collection -->
<g id="node4" class="node">
<title>Collection</title>
<ellipse fill="none" stroke="#000000" cx="145.6877" cy="-18" rx="46.8977" ry="18"/>
<text text-anchor="middle" x="145.6877" y="-13.8" font-family="Times,serif" font-size="14.00" fill="#000000">Collection</text>
</g>
<!-- Note&#45;&gt;Collection -->
<g id="edge1" class="edge">
<title>Note&#45;&gt;Collection</title>
<path fill="none" stroke="#b0030c" d="M145.6877,-62.8688C145.6877,-57.3894 145.6877,-51.6439 145.6877,-46.1634"/>
<polygon fill="#b0030c" stroke="#b0030c" points="145.6878,-62.9551 141.1877,-72.955 145.6878,-67.9551 145.6877,-72.9551 145.6877,-72.9551 145.6877,-72.9551 145.6878,-67.9551 150.1877,-72.9551 145.6878,-62.9551 145.6878,-62.9551"/>
<polygon fill="#b0030c" stroke="#b0030c" points="145.6878,-46.0904 150.1877,-36.0903 145.6878,-41.0904 145.6877,-36.0904 145.6877,-36.0904 145.6877,-36.0904 145.6878,-41.0904 141.1877,-36.0904 145.6878,-46.0904 145.6878,-46.0904"/>
</g>
<!-- Share -->
<g id="node3" class="node">
<title>Share</title>
<ellipse fill="none" stroke="#000000" cx="751.6877" cy="-195.5" rx="30.4862" ry="18"/>
<text text-anchor="middle" x="751.6877" y="-191.3" font-family="Times,serif" font-size="14.00" fill="#000000">Share</text>
</g>
<!-- FriendRequest -->
<g id="node5" class="node">
<title>FriendRequest</title>
<ellipse fill="none" stroke="#000000" cx="252.6877" cy="-91" rx="61.8736" ry="18"/>
<text text-anchor="middle" x="252.6877" y="-86.8" font-family="Times,serif" font-size="14.00" fill="#000000">FriendRequest</text>
</g>
<!-- Friendship -->
<g id="node6" class="node">
<title>Friendship</title>
<ellipse fill="none" stroke="#000000" cx="417.6877" cy="-91" rx="47.8754" ry="18"/>
<text text-anchor="middle" x="417.6877" y="-86.8" font-family="Times,serif" font-size="14.00" fill="#000000">Friendship</text>
</g>
<!-- ApplicationRecord -->
<g id="node7" class="node">
<title>ApplicationRecord</title>
<ellipse fill="none" stroke="#000000" cx="877.6877" cy="-195.5" rx="77.2916" ry="18"/>
<text text-anchor="middle" x="877.6877" y="-191.3" font-family="Times,serif" font-size="14.00" fill="#000000">ApplicationRecord</text>
</g>
<!-- User -->
<g id="node8" class="node">
<title>User</title>
<ellipse fill="none" stroke="#000000" cx="252.6877" cy="-195.5" rx="27" ry="18"/>
<text text-anchor="middle" x="252.6877" y="-191.3" font-family="Times,serif" font-size="14.00" fill="#000000">User</text>
</g>
<!-- User&#45;&gt;Note -->
<g id="edge2" class="edge">
<title>User&#45;&gt;Note</title>
<path fill="none" stroke="#8e2d53" d="M232.0511,-174.3722C227.05,-169.3089 221.7,-163.9392 216.6877,-159 200.8912,-143.4337 182.8389,-126.1508 168.8903,-112.9041"/>
<ellipse fill="none" stroke="#8e2d53" cx="234.9143" cy="-177.2806" rx="4" ry="4"/>
<polygon fill="#8e2d53" stroke="#8e2d53" points="168.8611,-112.8764 164.6996,-102.7308 165.2324,-109.4365 161.6037,-105.9966 161.6037,-105.9966 161.6037,-105.9966 165.2324,-109.4365 158.5078,-109.2625 168.8611,-112.8764 168.8611,-112.8764"/>
</g>
<!-- User&#45;&gt;FriendRequest -->
<g id="edge7" class="edge">
<title>User&#45;&gt;FriendRequest</title>
<path fill="none" stroke="#444249" d="M239.6185,-171.0359C234.2515,-158.0068 230.051,-141.6822 233.6877,-127 234.4285,-124.0096 235.4679,-120.9937 236.6828,-118.0477"/>
<ellipse fill="none" stroke="#444249" cx="241.4124" cy="-175.0296" rx="4" ry="4"/>
<polygon fill="#444249" stroke="#444249" points="236.6984,-118.015 245.0707,-110.9329 238.8545,-113.5037 241.0106,-108.9925 241.0106,-108.9925 241.0106,-108.9925 238.8545,-113.5037 236.9504,-107.052 236.6984,-118.015 236.6984,-118.015"/>
</g>
<!-- User&#45;&gt;FriendRequest -->
<g id="edge9" class="edge">
<title>User&#45;&gt;FriendRequest</title>
<path fill="none" stroke="#b923e6" d="M252.6877,-169.1853C252.6877,-154.0145 252.6877,-134.9357 252.6877,-119.4227"/>
<ellipse fill="none" stroke="#b923e6" cx="252.6878" cy="-173.2975" rx="4" ry="4"/>
<polygon fill="#b923e6" stroke="#b923e6" points="252.6878,-119.3445 257.1877,-109.3445 252.6878,-114.3445 252.6877,-109.3445 252.6877,-109.3445 252.6877,-109.3445 252.6878,-114.3445 248.1877,-109.3446 252.6878,-119.3445 252.6878,-119.3445"/>
<text text-anchor="middle" x="319.5535" y="-129.8" font-family="Times,serif" font-size="14.00" fill="#000000">inverse_friend_requests</text>
</g>
<!-- User&#45;&gt;Friendship -->
<g id="edge3" class="edge">
<title>User&#45;&gt;Friendship</title>
<path fill="none" stroke="#35d467" d="M286.5883,-188.2784C316.0029,-180.614 358.3539,-166.0625 387.6877,-141 394.9574,-134.7889 400.9465,-126.3546 405.6105,-118.1831"/>
<ellipse fill="none" stroke="#35d467" cx="282.5372" cy="-189.2908" rx="4" ry="4"/>
<polygon fill="#35d467" stroke="#35d467" points="405.674,-118.0616 414.2978,-111.288 407.9924,-113.6315 410.3108,-109.2015 410.3108,-109.2015 410.3108,-109.2015 407.9924,-113.6315 406.3237,-107.1149 405.674,-118.0616 405.674,-118.0616"/>
</g>
<!-- User&#45;&gt;Friendship -->
<g id="edge5" class="edge">
<title>User&#45;&gt;Friendship</title>
<path fill="none" stroke="#05e7e1" d="M287.7205,-192.74C322.9772,-188.04 376.3529,-175.3363 406.6877,-141 412.007,-134.9791 414.9413,-126.9764 416.5117,-119.1421"/>
<ellipse fill="none" stroke="#05e7e1" cx="283.5825" cy="-193.2416" rx="4" ry="4"/>
<polygon fill="#05e7e1" stroke="#05e7e1" points="416.5269,-119.0295 422.3352,-109.7282 417.2017,-114.0753 417.8764,-109.121 417.8764,-109.121 417.8764,-109.121 417.2017,-114.0753 413.4175,-108.5138 416.5269,-119.0295 416.5269,-119.0295"/>
<text text-anchor="middle" x="468.5085" y="-129.8" font-family="Times,serif" font-size="14.00" fill="#000000">inverse_friendships</text>
</g>
<!-- User&#45;&gt;User -->
<g id="edge4" class="edge">
<title>User&#45;&gt;User</title>
<path fill="none" stroke="#3fb91c" d="M289.631,-197.9764C294.477,-197.5523 297.6877,-196.7268 297.6877,-195.5 297.6877,-194.2732 294.477,-193.4477 289.631,-193.0236"/>
<polygon fill="#3fb91c" stroke="#3fb91c" points="289.4773,-197.9813 279.3363,-193.8087 284.48,-198.1438 279.4826,-198.3063 279.4826,-198.3063 279.4826,-198.3063 284.48,-198.1438 279.6289,-202.8039 289.4773,-197.9813 289.4773,-197.9813"/>
<polygon fill="#3fb91c" stroke="#3fb91c" points="289.4773,-193.0187 279.6289,-188.1961 284.48,-192.8562 279.4826,-192.6937 279.4826,-192.6937 279.4826,-192.6937 284.48,-192.8562 279.3363,-197.1913 289.4773,-193.0187 289.4773,-193.0187"/>
<text text-anchor="middle" x="317.1257" y="-191.3" font-family="Times,serif" font-size="14.00" fill="#000000">friends</text>
</g>
<!-- User&#45;&gt;User -->
<g id="edge6" class="edge">
<title>User&#45;&gt;User</title>
<path fill="none" stroke="#f5a661" d="M289.1004,-200.8048C312.4493,-201.913 336.5637,-200.1447 336.5637,-195.5 336.5637,-190.8553 312.4493,-189.087 289.1004,-190.1952"/>
<polygon fill="#f5a661" stroke="#f5a661" points="288.8436,-200.7878 279.1645,-195.6338 283.8547,-200.4558 278.8657,-200.1239 278.8657,-200.1239 278.8657,-200.1239 283.8547,-200.4558 278.5669,-204.6139 288.8436,-200.7878 288.8436,-200.7878"/>
<polygon fill="#f5a661" stroke="#f5a661" points="288.8436,-190.2122 278.5669,-186.3861 283.8547,-190.5442 278.8657,-190.8761 278.8657,-190.8761 278.8657,-190.8761 283.8547,-190.5442 279.1645,-195.3662 288.8436,-190.2122 288.8436,-190.2122"/>
<text text-anchor="middle" x="379.7156" y="-191.3" font-family="Times,serif" font-size="14.00" fill="#000000">inverse_friends</text>
</g>
<!-- User&#45;&gt;User -->
<g id="edge8" class="edge">
<title>User&#45;&gt;User</title>
<path fill="none" stroke="#653e62" d="M288.9637,-201.6857C340.5354,-206.0928 422.8674,-204.0309 422.8674,-195.5 422.8674,-186.9691 340.5354,-184.9072 288.9637,-189.3143"/>
<polygon fill="#653e62" stroke="#653e62" points="288.7316,-201.6629 279.2209,-196.2043 283.7557,-201.1728 278.7798,-200.6827 278.7798,-200.6827 278.7798,-200.6827 283.7557,-201.1728 278.3387,-205.161 288.7316,-201.6629 288.7316,-201.6629"/>
<polygon fill="#653e62" stroke="#653e62" points="288.7316,-189.3371 278.3387,-185.839 283.7557,-189.8272 278.7798,-190.3173 278.7798,-190.3173 278.7798,-190.3173 283.7557,-189.8272 279.2209,-194.7957 288.7316,-189.3371 288.7316,-189.3371"/>
<text text-anchor="middle" x="468.3572" y="-191.3" font-family="Times,serif" font-size="14.00" fill="#000000">pending_friends</text>
</g>
<!-- User&#45;&gt;User -->
<g id="edge10" class="edge">
<title>User&#45;&gt;User</title>
<path fill="none" stroke="#d6d40b" d="M288.7675,-202.3271C362.8526,-209.9783 513.8469,-207.7026 513.8469,-195.5 513.8469,-183.2974 362.8526,-181.0217 288.7675,-188.6729"/>
<polygon fill="#d6d40b" stroke="#d6d40b" points="288.3554,-202.2793 278.941,-196.6562 283.3888,-201.7028 278.4221,-201.1262 278.4221,-201.1262 278.4221,-201.1262 283.3888,-201.7028 277.9032,-205.5962 288.3554,-202.2793 288.3554,-202.2793"/>
<polygon fill="#d6d40b" stroke="#d6d40b" points="288.3554,-188.7207 277.9032,-185.4038 283.3888,-189.2972 278.4221,-189.8738 278.4221,-189.8738 278.4221,-189.8738 283.3888,-189.2972 278.941,-194.3438 288.3554,-188.7207 288.3554,-188.7207"/>
<text text-anchor="middle" x="583.0505" y="-191.3" font-family="Times,serif" font-size="14.00" fill="#000000">inverse_pending_friends</text>
</g>
</g>
</svg>
