<?xml version="1.0" encoding="UTF-8" standalone="no"?>
<!DOCTYPE svg PUBLIC "-//W3C//DTD SVG 1.1//EN"
 "http://www.w3.org/Graphics/SVG/1.1/DTD/svg11.dtd">
<!-- Generated by graphviz version 2.40.1 (20161225.0304)
 -->
<!-- Title: models_diagram Pages: 1 -->
<svg width="718pt" height="454pt"
 viewBox="0.00 0.00 718.08 454.00" xmlns="http://www.w3.org/2000/svg" xmlns:xlink="http://www.w3.org/1999/xlink">
<g id="graph0" class="graph" transform="scale(1 1) rotate(0) translate(4 450)">
<title>models_diagram</title>
<polygon fill="transparent" stroke="transparent" points="-4,4 -4,-450 714.0835,-450 714.0835,4 -4,4"/>
<!-- _diagram_info -->
<g id="node1" class="node">
<title>_diagram_info</title>
<text text-anchor="start" x="8" y="-396.6" font-family="Times,serif" font-size="13.00" fill="#000000">Models diagram</text>
<text text-anchor="start" x="8" y="-383.6" font-family="Times,serif" font-size="13.00" fill="#000000">Date: May 23 2018 &#45; 18:33</text>
<text text-anchor="start" x="8" y="-370.6" font-family="Times,serif" font-size="13.00" fill="#000000">Migration version: 20180522162635</text>
<text text-anchor="start" x="8" y="-357.6" font-family="Times,serif" font-size="13.00" fill="#000000">Generated by RailRoady 1.5.3</text>
<text text-anchor="start" x="8" y="-344.6" font-family="Times,serif" font-size="13.00" fill="#000000">http://railroady.prestonlee.com</text>
</g>
<!-- Note -->
<g id="node2" class="node">
<title>Note</title>
<path fill="none" stroke="#000000" d="M129.1824,-124.5C129.1824,-124.5 238.1931,-124.5 238.1931,-124.5 244.1931,-124.5 250.1931,-130.5 250.1931,-136.5 250.1931,-136.5 250.1931,-240.5 250.1931,-240.5 250.1931,-246.5 244.1931,-252.5 238.1931,-252.5 238.1931,-252.5 129.1824,-252.5 129.1824,-252.5 123.1824,-252.5 117.1824,-246.5 117.1824,-240.5 117.1824,-240.5 117.1824,-136.5 117.1824,-136.5 117.1824,-130.5 123.1824,-124.5 129.1824,-124.5"/>
<text text-anchor="middle" x="183.6877" y="-237.3" font-family="Times,serif" font-size="14.00" fill="#000000">Note</text>
<polyline fill="none" stroke="#000000" points="117.1824,-230.5 250.1931,-230.5 "/>
<text text-anchor="start" x="125.1824" y="-215.3" font-family="Times,serif" font-size="14.00" fill="#000000">id :INTEGER</text>
<text text-anchor="start" x="125.1824" y="-201.3" font-family="Times,serif" font-size="14.00" fill="#000000">title :varchar</text>
<text text-anchor="start" x="125.1824" y="-187.3" font-family="Times,serif" font-size="14.00" fill="#000000">body :varchar</text>
<text text-anchor="start" x="125.1824" y="-173.3" font-family="Times,serif" font-size="14.00" fill="#000000">user_id :integer</text>
<text text-anchor="start" x="125.1824" y="-159.3" font-family="Times,serif" font-size="14.00" fill="#000000">created_at :datetime</text>
<text text-anchor="start" x="125.1824" y="-145.3" font-family="Times,serif" font-size="14.00" fill="#000000">updated_at :datetime</text>
<text text-anchor="start" x="125.1824" y="-131.3" font-family="Times,serif" font-size="14.00" fill="#000000">imagenPost :varchar</text>
</g>
<!-- Collection -->
<g id="node3" class="node">
<title>Collection</title>
<path fill="none" stroke="#000000" d="M129.1824,-.5C129.1824,-.5 238.1931,-.5 238.1931,-.5 244.1931,-.5 250.1931,-6.5 250.1931,-12.5 250.1931,-12.5 250.1931,-74.5 250.1931,-74.5 250.1931,-80.5 244.1931,-86.5 238.1931,-86.5 238.1931,-86.5 129.1824,-86.5 129.1824,-86.5 123.1824,-86.5 117.1824,-80.5 117.1824,-74.5 117.1824,-74.5 117.1824,-12.5 117.1824,-12.5 117.1824,-6.5 123.1824,-.5 129.1824,-.5"/>
<text text-anchor="middle" x="183.6877" y="-71.3" font-family="Times,serif" font-size="14.00" fill="#000000">Collection</text>
<polyline fill="none" stroke="#000000" points="117.1824,-64.5 250.1931,-64.5 "/>
<text text-anchor="start" x="125.1824" y="-49.3" font-family="Times,serif" font-size="14.00" fill="#000000">id :INTEGER</text>
<text text-anchor="start" x="125.1824" y="-35.3" font-family="Times,serif" font-size="14.00" fill="#000000">name :varchar</text>
<text text-anchor="start" x="125.1824" y="-21.3" font-family="Times,serif" font-size="14.00" fill="#000000">created_at :datetime</text>
<text text-anchor="start" x="125.1824" y="-7.3" font-family="Times,serif" font-size="14.00" fill="#000000">updated_at :datetime</text>
</g>
<!-- Note&#45;&gt;Collection -->
<g id="edge1" class="edge">
<title>Note&#45;&gt;Collection</title>
<path fill="none" stroke="#fe739a" d="M183.6877,-114.2773C183.6877,-108.3928 183.6877,-102.5235 183.6877,-96.8245"/>
<polygon fill="#fe739a" stroke="#fe739a" points="183.6878,-114.4788 179.1877,-124.4788 183.6878,-119.4788 183.6877,-124.4788 183.6877,-124.4788 183.6877,-124.4788 183.6878,-119.4788 188.1877,-124.4789 183.6878,-114.4788 183.6878,-114.4788"/>
<polygon fill="#fe739a" stroke="#fe739a" points="183.6878,-96.7838 188.1877,-86.7838 183.6878,-91.7838 183.6877,-86.7838 183.6877,-86.7838 183.6877,-86.7838 183.6878,-91.7838 179.1877,-86.7839 183.6878,-96.7838 183.6878,-96.7838"/>
</g>
<!-- Friendship -->
<g id="node4" class="node">
<title>Friendship</title>
<path fill="none" stroke="#000000" d="M280.1824,-138.5C280.1824,-138.5 389.1931,-138.5 389.1931,-138.5 395.1931,-138.5 401.1931,-144.5 401.1931,-150.5 401.1931,-150.5 401.1931,-226.5 401.1931,-226.5 401.1931,-232.5 395.1931,-238.5 389.1931,-238.5 389.1931,-238.5 280.1824,-238.5 280.1824,-238.5 274.1824,-238.5 268.1824,-232.5 268.1824,-226.5 268.1824,-226.5 268.1824,-150.5 268.1824,-150.5 268.1824,-144.5 274.1824,-138.5 280.1824,-138.5"/>
<text text-anchor="middle" x="334.6877" y="-223.3" font-family="Times,serif" font-size="14.00" fill="#000000">Friendship</text>
<polyline fill="none" stroke="#000000" points="268.1824,-216.5 401.1931,-216.5 "/>
<text text-anchor="start" x="276.1824" y="-201.3" font-family="Times,serif" font-size="14.00" fill="#000000">id :integer</text>
<text text-anchor="start" x="276.1824" y="-187.3" font-family="Times,serif" font-size="14.00" fill="#000000">user_id :integer</text>
<text text-anchor="start" x="276.1824" y="-173.3" font-family="Times,serif" font-size="14.00" fill="#000000">friend_id :integer</text>
<text text-anchor="start" x="276.1824" y="-159.3" font-family="Times,serif" font-size="14.00" fill="#000000">created_at :datetime</text>
<text text-anchor="start" x="276.1824" y="-145.3" font-family="Times,serif" font-size="14.00" fill="#000000">updated_at :datetime</text>
</g>
<!-- ApplicationRecord -->
<g id="node5" class="node">
<title>ApplicationRecord</title>
<ellipse fill="none" stroke="#000000" cx="632.6877" cy="-374.5" rx="77.2916" ry="18"/>
<text text-anchor="middle" x="632.6877" y="-370.3" font-family="Times,serif" font-size="14.00" fill="#000000">ApplicationRecord</text>
</g>
<!-- User -->
<g id="node6" class="node">
<title>User</title>
<path fill="none" stroke="#000000" d="M237.8616,-303.5C237.8616,-303.5 365.5139,-303.5 365.5139,-303.5 371.5139,-303.5 377.5139,-309.5 377.5139,-315.5 377.5139,-315.5 377.5139,-433.5 377.5139,-433.5 377.5139,-439.5 371.5139,-445.5 365.5139,-445.5 365.5139,-445.5 237.8616,-445.5 237.8616,-445.5 231.8616,-445.5 225.8616,-439.5 225.8616,-433.5 225.8616,-433.5 225.8616,-315.5 225.8616,-315.5 225.8616,-309.5 231.8616,-303.5 237.8616,-303.5"/>
<text text-anchor="middle" x="301.6877" y="-430.3" font-family="Times,serif" font-size="14.00" fill="#000000">User</text>
<polyline fill="none" stroke="#000000" points="225.8616,-423.5 377.5139,-423.5 "/>
<text text-anchor="start" x="233.8616" y="-408.3" font-family="Times,serif" font-size="14.00" fill="#000000">admin :boolean</text>
<text text-anchor="start" x="233.8616" y="-394.3" font-family="Times,serif" font-size="14.00" fill="#000000">name :varchar</text>
<text text-anchor="start" x="233.8616" y="-380.3" font-family="Times,serif" font-size="14.00" fill="#000000">password :varchar</text>
<text text-anchor="start" x="233.8616" y="-366.3" font-family="Times,serif" font-size="14.00" fill="#000000">created_at :datetime</text>
<text text-anchor="start" x="233.8616" y="-352.3" font-family="Times,serif" font-size="14.00" fill="#000000">updated_at :datetime</text>
<text text-anchor="start" x="233.8616" y="-338.3" font-family="Times,serif" font-size="14.00" fill="#000000">cover_filename :varchar</text>
<text text-anchor="start" x="233.8616" y="-324.3" font-family="Times,serif" font-size="14.00" fill="#000000">email :varchar</text>
<text text-anchor="start" x="233.8616" y="-310.3" font-family="Times,serif" font-size="14.00" fill="#000000">id :INTEGER</text>
</g>
<!-- User&#45;&gt;Note -->
<g id="edge2" class="edge">
<title>User&#45;&gt;Note</title>
<path fill="none" stroke="#6d116e" d="M252.0643,-296.2801C244.6996,-284.6712 237.1348,-272.7471 229.845,-261.2563"/>
<ellipse fill="none" stroke="#6d116e" cx="254.4291" cy="-300.0076" rx="4" ry="4"/>
<polygon fill="#6d116e" stroke="#6d116e" points="229.6889,-261.0102 228.1317,-250.1554 227.0103,-256.7881 224.3318,-252.5661 224.3318,-252.5661 224.3318,-252.5661 227.0103,-256.7881 220.532,-254.9767 229.6889,-261.0102 229.6889,-261.0102"/>
</g>
<!-- User&#45;&gt;Friendship -->
<g id="edge3" class="edge">
<title>User&#45;&gt;Friendship</title>
<path fill="none" stroke="#63c0be" d="M311.6156,-295.4552C312.8828,-287.1809 314.2454,-278.908 315.6877,-271 317.0263,-263.6608 318.581,-255.9886 320.2135,-248.4041"/>
<ellipse fill="none" stroke="#63c0be" cx="311.0222" cy="-299.4209" rx="4" ry="4"/>
<polygon fill="#63c0be" stroke="#63c0be" points="320.2397,-248.2848 326.7872,-239.4882 321.3163,-243.4021 322.3928,-238.5193 322.3928,-238.5193 322.3928,-238.5193 321.3163,-243.4021 317.9983,-237.5504 320.2397,-248.2848 320.2397,-248.2848"/>
</g>
<!-- User&#45;&gt;Friendship -->
<g id="edge5" class="edge">
<title>User&#45;&gt;Friendship</title>
<path fill="none" stroke="#6a2fe3" d="M315.7044,-295.4972C318.4747,-279.8826 321.3406,-263.7294 323.98,-248.8527"/>
<ellipse fill="none" stroke="#6a2fe3" cx="315.0037" cy="-299.4467" rx="4" ry="4"/>
<polygon fill="#6a2fe3" stroke="#6a2fe3" points="324.0202,-248.6259 330.198,-239.5658 324.8937,-243.7028 325.7672,-238.7797 325.7672,-238.7797 325.7672,-238.7797 324.8937,-243.7028 321.3363,-237.9935 324.0202,-248.6259 324.0202,-248.6259"/>
<text text-anchor="middle" x="373.5085" y="-273.8" font-family="Times,serif" font-size="14.00" fill="#000000">inverse_friendships</text>
</g>
<!-- User&#45;&gt;User -->
<g id="edge4" class="edge">
<title>User&#45;&gt;User</title>
<path fill="none" stroke="#6270fa" d="M387.5877,-380.6313C392.5491,-379.1563 395.5139,-377.1125 395.5139,-374.5 395.5139,-371.8875 392.5491,-369.8437 387.5877,-368.3687"/>
<polygon fill="#6270fa" stroke="#6270fa" points="387.3422,-380.6787 376.6698,-378.1584 382.433,-381.6276 377.5239,-382.5766 377.5239,-382.5766 377.5239,-382.5766 382.433,-381.6276 378.378,-386.9948 387.3422,-380.6787 387.3422,-380.6787"/>
<polygon fill="#6270fa" stroke="#6270fa" points="387.3422,-368.3213 378.378,-362.0052 382.433,-367.3724 377.5239,-366.4234 377.5239,-366.4234 377.5239,-366.4234 382.433,-367.3724 376.6698,-370.8416 387.3422,-368.3213 387.3422,-368.3213"/>
<text text-anchor="middle" x="414.9519" y="-370.3" font-family="Times,serif" font-size="14.00" fill="#000000">friends</text>
</g>
<!-- User&#45;&gt;User -->
<g id="edge6" class="edge">
<title>User&#45;&gt;User</title>
<path fill="none" stroke="#01c489" d="M387.7848,-392.4161C413.6786,-391.653 434.3899,-385.681 434.3899,-374.5 434.3899,-363.319 413.6786,-357.347 387.7848,-356.5839"/>
<polygon fill="#01c489" stroke="#01c489" points="387.6392,-392.4166 377.6227,-387.9536 382.6393,-392.4351 377.6393,-392.4536 377.6393,-392.4536 377.6393,-392.4536 382.6393,-392.4351 377.656,-396.9536 387.6392,-392.4166 387.6392,-392.4166"/>
<polygon fill="#01c489" stroke="#01c489" points="387.6392,-356.5834 377.656,-352.0464 382.6393,-356.5649 377.6393,-356.5464 377.6393,-356.5464 377.6393,-356.5464 382.6393,-356.5649 377.6227,-361.0464 387.6392,-356.5834 387.6392,-356.5834"/>
<text text-anchor="middle" x="477.5417" y="-370.3" font-family="Times,serif" font-size="14.00" fill="#000000">inverse_friends</text>
</g>
</g>
</svg>
