<?xml version="1.0" encoding="UTF-8" standalone="no"?>
<!DOCTYPE svg PUBLIC "-//W3C//DTD SVG 1.1//EN"
 "http://www.w3.org/Graphics/SVG/1.1/DTD/svg11.dtd">
<!-- Generated by graphviz version 2.40.1 (20161225.0304)
 -->
<!-- Title: models_diagram Pages: 1 -->
<svg width="1133pt" height="454pt"
 viewBox="0.00 0.00 1133.08 454.00" xmlns="http://www.w3.org/2000/svg" xmlns:xlink="http://www.w3.org/1999/xlink">
<g id="graph0" class="graph" transform="scale(1 1) rotate(0) translate(4 450)">
<title>models_diagram</title>
<polygon fill="transparent" stroke="transparent" points="-4,4 -4,-450 1129.0835,-450 1129.0835,4 -4,4"/>
<!-- _diagram_info -->
<g id="node1" class="node">
<title>_diagram_info</title>
<text text-anchor="start" x="8" y="-396.6" font-family="Times,serif" font-size="13.00" fill="#000000">Models diagram</text>
<text text-anchor="start" x="8" y="-383.6" font-family="Times,serif" font-size="13.00" fill="#000000">Date: May 27 2018 &#45; 19:23</text>
<text text-anchor="start" x="8" y="-370.6" font-family="Times,serif" font-size="13.00" fill="#000000">Migration version: 20180526104220</text>
<text text-anchor="start" x="8" y="-357.6" font-family="Times,serif" font-size="13.00" fill="#000000">Generated by RailRoady 1.5.3</text>
<text text-anchor="start" x="8" y="-344.6" font-family="Times,serif" font-size="13.00" fill="#000000">http://railroady.prestonlee.com</text>
</g>
<!-- Note -->
<g id="node2" class="node">
<title>Note</title>
<path fill="none" stroke="#000000" d="M96.1824,-124.5C96.1824,-124.5 205.1931,-124.5 205.1931,-124.5 211.1931,-124.5 217.1931,-130.5 217.1931,-136.5 217.1931,-136.5 217.1931,-240.5 217.1931,-240.5 217.1931,-246.5 211.1931,-252.5 205.1931,-252.5 205.1931,-252.5 96.1824,-252.5 96.1824,-252.5 90.1824,-252.5 84.1824,-246.5 84.1824,-240.5 84.1824,-240.5 84.1824,-136.5 84.1824,-136.5 84.1824,-130.5 90.1824,-124.5 96.1824,-124.5"/>
<text text-anchor="middle" x="150.6877" y="-237.3" font-family="Times,serif" font-size="14.00" fill="#000000">Note</text>
<polyline fill="none" stroke="#000000" points="84.1824,-230.5 217.1931,-230.5 "/>
<text text-anchor="start" x="92.1824" y="-215.3" font-family="Times,serif" font-size="14.00" fill="#000000">id :INTEGER</text>
<text text-anchor="start" x="92.1824" y="-201.3" font-family="Times,serif" font-size="14.00" fill="#000000">title :varchar</text>
<text text-anchor="start" x="92.1824" y="-187.3" font-family="Times,serif" font-size="14.00" fill="#000000">body :varchar</text>
<text text-anchor="start" x="92.1824" y="-173.3" font-family="Times,serif" font-size="14.00" fill="#000000">user_id :integer</text>
<text text-anchor="start" x="92.1824" y="-159.3" font-family="Times,serif" font-size="14.00" fill="#000000">created_at :datetime</text>
<text text-anchor="start" x="92.1824" y="-145.3" font-family="Times,serif" font-size="14.00" fill="#000000">updated_at :datetime</text>
<text text-anchor="start" x="92.1824" y="-131.3" font-family="Times,serif" font-size="14.00" fill="#000000">imagenPost :varchar</text>
</g>
<!-- Collection -->
<g id="node4" class="node">
<title>Collection</title>
<path fill="none" stroke="#000000" d="M96.1824,-.5C96.1824,-.5 205.1931,-.5 205.1931,-.5 211.1931,-.5 217.1931,-6.5 217.1931,-12.5 217.1931,-12.5 217.1931,-74.5 217.1931,-74.5 217.1931,-80.5 211.1931,-86.5 205.1931,-86.5 205.1931,-86.5 96.1824,-86.5 96.1824,-86.5 90.1824,-86.5 84.1824,-80.5 84.1824,-74.5 84.1824,-74.5 84.1824,-12.5 84.1824,-12.5 84.1824,-6.5 90.1824,-.5 96.1824,-.5"/>
<text text-anchor="middle" x="150.6877" y="-71.3" font-family="Times,serif" font-size="14.00" fill="#000000">Collection</text>
<polyline fill="none" stroke="#000000" points="84.1824,-64.5 217.1931,-64.5 "/>
<text text-anchor="start" x="92.1824" y="-49.3" font-family="Times,serif" font-size="14.00" fill="#000000">id :INTEGER</text>
<text text-anchor="start" x="92.1824" y="-35.3" font-family="Times,serif" font-size="14.00" fill="#000000">name :varchar</text>
<text text-anchor="start" x="92.1824" y="-21.3" font-family="Times,serif" font-size="14.00" fill="#000000">created_at :datetime</text>
<text text-anchor="start" x="92.1824" y="-7.3" font-family="Times,serif" font-size="14.00" fill="#000000">updated_at :datetime</text>
</g>
<!-- Note&#45;&gt;Collection -->
<g id="edge1" class="edge">
<title>Note&#45;&gt;Collection</title>
<path fill="none" stroke="#0b1c4c" d="M150.6877,-114.2773C150.6877,-108.3928 150.6877,-102.5235 150.6877,-96.8245"/>
<polygon fill="#0b1c4c" stroke="#0b1c4c" points="150.6878,-114.4788 146.1877,-124.4788 150.6878,-119.4788 150.6877,-124.4788 150.6877,-124.4788 150.6877,-124.4788 150.6878,-119.4788 155.1877,-124.4789 150.6878,-114.4788 150.6878,-114.4788"/>
<polygon fill="#0b1c4c" stroke="#0b1c4c" points="150.6878,-96.7838 155.1877,-86.7838 150.6878,-91.7838 150.6877,-86.7838 150.6877,-86.7838 150.6877,-86.7838 150.6878,-91.7838 146.1877,-86.7839 150.6878,-96.7838 150.6878,-96.7838"/>
</g>
<!-- Share -->
<g id="node3" class="node">
<title>Share</title>
<path fill="none" stroke="#000000" d="M831.1824,-324.5C831.1824,-324.5 940.1931,-324.5 940.1931,-324.5 946.1931,-324.5 952.1931,-330.5 952.1931,-336.5 952.1931,-336.5 952.1931,-412.5 952.1931,-412.5 952.1931,-418.5 946.1931,-424.5 940.1931,-424.5 940.1931,-424.5 831.1824,-424.5 831.1824,-424.5 825.1824,-424.5 819.1824,-418.5 819.1824,-412.5 819.1824,-412.5 819.1824,-336.5 819.1824,-336.5 819.1824,-330.5 825.1824,-324.5 831.1824,-324.5"/>
<text text-anchor="middle" x="885.6877" y="-409.3" font-family="Times,serif" font-size="14.00" fill="#000000">Share</text>
<polyline fill="none" stroke="#000000" points="819.1824,-402.5 952.1931,-402.5 "/>
<text text-anchor="start" x="827.1824" y="-387.3" font-family="Times,serif" font-size="14.00" fill="#000000">id :INTEGER</text>
<text text-anchor="start" x="827.1824" y="-373.3" font-family="Times,serif" font-size="14.00" fill="#000000">user_id :integer</text>
<text text-anchor="start" x="827.1824" y="-359.3" font-family="Times,serif" font-size="14.00" fill="#000000">note_id :integer</text>
<text text-anchor="start" x="827.1824" y="-345.3" font-family="Times,serif" font-size="14.00" fill="#000000">created_at :datetime</text>
<text text-anchor="start" x="827.1824" y="-331.3" font-family="Times,serif" font-size="14.00" fill="#000000">updated_at :datetime</text>
</g>
<!-- FriendRequest -->
<g id="node5" class="node">
<title>FriendRequest</title>
<path fill="none" stroke="#000000" d="M247.1824,-138.5C247.1824,-138.5 356.1931,-138.5 356.1931,-138.5 362.1931,-138.5 368.1931,-144.5 368.1931,-150.5 368.1931,-150.5 368.1931,-226.5 368.1931,-226.5 368.1931,-232.5 362.1931,-238.5 356.1931,-238.5 356.1931,-238.5 247.1824,-238.5 247.1824,-238.5 241.1824,-238.5 235.1824,-232.5 235.1824,-226.5 235.1824,-226.5 235.1824,-150.5 235.1824,-150.5 235.1824,-144.5 241.1824,-138.5 247.1824,-138.5"/>
<text text-anchor="middle" x="301.6877" y="-223.3" font-family="Times,serif" font-size="14.00" fill="#000000">FriendRequest</text>
<polyline fill="none" stroke="#000000" points="235.1824,-216.5 368.1931,-216.5 "/>
<text text-anchor="start" x="243.1824" y="-201.3" font-family="Times,serif" font-size="14.00" fill="#000000">id :integer</text>
<text text-anchor="start" x="243.1824" y="-187.3" font-family="Times,serif" font-size="14.00" fill="#000000">user_id :integer</text>
<text text-anchor="start" x="243.1824" y="-173.3" font-family="Times,serif" font-size="14.00" fill="#000000">friend_id :integer</text>
<text text-anchor="start" x="243.1824" y="-159.3" font-family="Times,serif" font-size="14.00" fill="#000000">created_at :datetime</text>
<text text-anchor="start" x="243.1824" y="-145.3" font-family="Times,serif" font-size="14.00" fill="#000000">updated_at :datetime</text>
</g>
<!-- Friendship -->
<g id="node6" class="node">
<title>Friendship</title>
<path fill="none" stroke="#000000" d="M414.1824,-138.5C414.1824,-138.5 523.1931,-138.5 523.1931,-138.5 529.1931,-138.5 535.1931,-144.5 535.1931,-150.5 535.1931,-150.5 535.1931,-226.5 535.1931,-226.5 535.1931,-232.5 529.1931,-238.5 523.1931,-238.5 523.1931,-238.5 414.1824,-238.5 414.1824,-238.5 408.1824,-238.5 402.1824,-232.5 402.1824,-226.5 402.1824,-226.5 402.1824,-150.5 402.1824,-150.5 402.1824,-144.5 408.1824,-138.5 414.1824,-138.5"/>
<text text-anchor="middle" x="468.6877" y="-223.3" font-family="Times,serif" font-size="14.00" fill="#000000">Friendship</text>
<polyline fill="none" stroke="#000000" points="402.1824,-216.5 535.1931,-216.5 "/>
<text text-anchor="start" x="410.1824" y="-201.3" font-family="Times,serif" font-size="14.00" fill="#000000">id :integer</text>
<text text-anchor="start" x="410.1824" y="-187.3" font-family="Times,serif" font-size="14.00" fill="#000000">user_id :integer</text>
<text text-anchor="start" x="410.1824" y="-173.3" font-family="Times,serif" font-size="14.00" fill="#000000">friend_id :integer</text>
<text text-anchor="start" x="410.1824" y="-159.3" font-family="Times,serif" font-size="14.00" fill="#000000">created_at :datetime</text>
<text text-anchor="start" x="410.1824" y="-145.3" font-family="Times,serif" font-size="14.00" fill="#000000">updated_at :datetime</text>
</g>
<!-- ApplicationRecord -->
<g id="node7" class="node">
<title>ApplicationRecord</title>
<ellipse fill="none" stroke="#000000" cx="1047.6877" cy="-374.5" rx="77.2916" ry="18"/>
<text text-anchor="middle" x="1047.6877" y="-370.3" font-family="Times,serif" font-size="14.00" fill="#000000">ApplicationRecord</text>
</g>
<!-- User -->
<g id="node8" class="node">
<title>User</title>
<path fill="none" stroke="#000000" d="M237.8616,-303.5C237.8616,-303.5 365.5139,-303.5 365.5139,-303.5 371.5139,-303.5 377.5139,-309.5 377.5139,-315.5 377.5139,-315.5 377.5139,-433.5 377.5139,-433.5 377.5139,-439.5 371.5139,-445.5 365.5139,-445.5 365.5139,-445.5 237.8616,-445.5 237.8616,-445.5 231.8616,-445.5 225.8616,-439.5 225.8616,-433.5 225.8616,-433.5 225.8616,-315.5 225.8616,-315.5 225.8616,-309.5 231.8616,-303.5 237.8616,-303.5"/>
<text text-anchor="middle" x="301.6877" y="-430.3" font-family="Times,serif" font-size="14.00" fill="#000000">User</text>
<polyline fill="none" stroke="#000000" points="225.8616,-423.5 377.5139,-423.5 "/>
<text text-anchor="start" x="233.8616" y="-408.3" font-family="Times,serif" font-size="14.00" fill="#000000">admin :boolean</text>
<text text-anchor="start" x="233.8616" y="-394.3" font-family="Times,serif" font-size="14.00" fill="#000000">name :varchar</text>
<text text-anchor="start" x="233.8616" y="-380.3" font-family="Times,serif" font-size="14.00" fill="#000000">password :varchar</text>
<text text-anchor="start" x="233.8616" y="-366.3" font-family="Times,serif" font-size="14.00" fill="#000000">created_at :datetime</text>
<text text-anchor="start" x="233.8616" y="-352.3" font-family="Times,serif" font-size="14.00" fill="#000000">updated_at :datetime</text>
<text text-anchor="start" x="233.8616" y="-338.3" font-family="Times,serif" font-size="14.00" fill="#000000">cover_filename :varchar</text>
<text text-anchor="start" x="233.8616" y="-324.3" font-family="Times,serif" font-size="14.00" fill="#000000">email :varchar</text>
<text text-anchor="start" x="233.8616" y="-310.3" font-family="Times,serif" font-size="14.00" fill="#000000">id :INTEGER</text>
</g>
<!-- User&#45;&gt;Note -->
<g id="edge2" class="edge">
<title>User&#45;&gt;Note</title>
<path fill="none" stroke="#629038" d="M238.8313,-297.0742C228.9659,-284.9221 218.8041,-272.4049 209.0457,-260.3846"/>
<ellipse fill="none" stroke="#629038" cx="241.4336" cy="-300.2797" rx="4" ry="4"/>
<polygon fill="#629038" stroke="#629038" points="209.0012,-260.3298 206.192,-249.7298 205.8498,-256.4479 202.6984,-252.5661 202.6984,-252.5661 202.6984,-252.5661 205.8498,-256.4479 199.2047,-255.4023 209.0012,-260.3298 209.0012,-260.3298"/>
</g>
<!-- User&#45;&gt;FriendRequest -->
<g id="edge7" class="edge">
<title>User&#45;&gt;FriendRequest</title>
<path fill="none" stroke="#43e6be" d="M282.2919,-295.2717C281.7463,-287.0973 281.7902,-278.8962 282.6877,-271 283.5094,-263.7711 284.7237,-256.2533 286.148,-248.8285"/>
<ellipse fill="none" stroke="#43e6be" cx="282.6662" cy="-299.441" rx="4" ry="4"/>
<polygon fill="#43e6be" stroke="#43e6be" points="286.196,-248.5938 292.6118,-239.7007 287.1997,-243.6956 288.2034,-238.7974 288.2034,-238.7974 288.2034,-238.7974 287.1997,-243.6956 283.795,-237.8941 286.196,-248.5938 286.196,-248.5938"/>
</g>
<!-- User&#45;&gt;FriendRequest -->
<g id="edge9" class="edge">
<title>User&#45;&gt;FriendRequest</title>
<path fill="none" stroke="#e5f9a6" d="M301.6877,-295.2409C301.6877,-279.6899 301.6877,-263.6149 301.6877,-248.8069"/>
<ellipse fill="none" stroke="#e5f9a6" cx="301.6878" cy="-299.3852" rx="4" ry="4"/>
<polygon fill="#e5f9a6" stroke="#e5f9a6" points="301.6878,-248.7797 306.1877,-238.7797 301.6878,-243.7797 301.6877,-238.7797 301.6877,-238.7797 301.6877,-238.7797 301.6878,-243.7797 297.1877,-238.7797 301.6878,-248.7797 301.6878,-248.7797"/>
<text text-anchor="middle" x="368.5535" y="-273.8" font-family="Times,serif" font-size="14.00" fill="#000000">inverse_friend_requests</text>
</g>
<!-- User&#45;&gt;Friendship -->
<g id="edge3" class="edge">
<title>User&#45;&gt;Friendship</title>
<path fill="none" stroke="#be1947" d="M384.3885,-332.1933C403.6609,-319.1976 422.6313,-303.3841 436.6877,-285 444.8892,-274.2735 451.0466,-261.3404 455.6491,-248.4775"/>
<ellipse fill="none" stroke="#be1947" cx="380.9104" cy="-334.4768" rx="4" ry="4"/>
<polygon fill="#be1947" stroke="#be1947" points="455.7438,-248.1901 463.1477,-240.101 457.3088,-243.4413 458.8738,-238.6925 458.8738,-238.6925 458.8738,-238.6925 457.3088,-243.4413 454.5998,-237.284 455.7438,-248.1901 455.7438,-248.1901"/>
</g>
<!-- User&#45;&gt;Friendship -->
<g id="edge5" class="edge">
<title>User&#45;&gt;Friendship</title>
<path fill="none" stroke="#fd39e1" d="M385.1266,-343.0003C411.328,-329.092 437.7943,-310.0794 454.6877,-285 461.852,-274.3643 466.0022,-261.5736 468.2949,-248.8345"/>
<ellipse fill="none" stroke="#fd39e1" cx="381.3098" cy="-344.9609" rx="4" ry="4"/>
<polygon fill="#fd39e1" stroke="#fd39e1" points="468.333,-248.5692 474.2115,-239.3121 469.0452,-243.6202 469.7574,-238.6712 469.7574,-238.6712 469.7574,-238.6712 469.0452,-243.6202 465.3033,-238.0302 468.333,-248.5692 468.333,-248.5692"/>
<text text-anchor="middle" x="516.5085" y="-273.8" font-family="Times,serif" font-size="14.00" fill="#000000">inverse_friendships</text>
</g>
<!-- User&#45;&gt;User -->
<g id="edge4" class="edge">
<title>User&#45;&gt;User</title>
<path fill="none" stroke="#c596f9" d="M387.5877,-377.5656C392.5491,-376.8282 395.5139,-375.8063 395.5139,-374.5 395.5139,-373.1937 392.5491,-372.1718 387.5877,-371.4344"/>
<polygon fill="#c596f9" stroke="#c596f9" points="387.4775,-377.5762 377.091,-374.0592 382.5007,-378.0573 377.5239,-378.5383 377.5239,-378.5383 377.5239,-378.5383 382.5007,-378.0573 377.9568,-383.0174 387.4775,-377.5762 387.4775,-377.5762"/>
<polygon fill="#c596f9" stroke="#c596f9" points="387.4775,-371.4238 377.9568,-365.9826 382.5007,-370.9427 377.5239,-370.4617 377.5239,-370.4617 377.5239,-370.4617 382.5007,-370.9427 377.091,-374.9408 387.4775,-371.4238 387.4775,-371.4238"/>
<text text-anchor="middle" x="414.9519" y="-370.3" font-family="Times,serif" font-size="14.00" fill="#000000">friends</text>
</g>
<!-- User&#45;&gt;User -->
<g id="edge6" class="edge">
<title>User&#45;&gt;User</title>
<path fill="none" stroke="#4eb1ea" d="M387.7848,-383.4581C413.6786,-383.0765 434.3899,-380.0905 434.3899,-374.5 434.3899,-368.9095 413.6786,-365.9235 387.7848,-365.5419"/>
<polygon fill="#4eb1ea" stroke="#4eb1ea" points="387.6393,-383.4582 377.631,-378.9768 382.6393,-383.4675 377.6393,-383.4768 377.6393,-383.4768 377.6393,-383.4768 382.6393,-383.4675 377.6477,-387.9768 387.6393,-383.4582 387.6393,-383.4582"/>
<polygon fill="#4eb1ea" stroke="#4eb1ea" points="387.6393,-365.5418 377.6477,-361.0232 382.6393,-365.5325 377.6393,-365.5232 377.6393,-365.5232 377.6393,-365.5232 382.6393,-365.5325 377.631,-370.0232 387.6393,-365.5418 387.6393,-365.5418"/>
<text text-anchor="middle" x="477.5417" y="-370.3" font-family="Times,serif" font-size="14.00" fill="#000000">inverse_friends</text>
</g>
<!-- User&#45;&gt;User -->
<g id="edge8" class="edge">
<title>User&#45;&gt;User</title>
<path fill="none" stroke="#f05359" d="M387.9717,-387.0617C450.5429,-390.06 520.6936,-385.8727 520.6936,-374.5 520.6936,-363.1273 450.5429,-358.94 387.9717,-361.9383"/>
<polygon fill="#f05359" stroke="#f05359" points="387.5905,-387.0409 377.8516,-382.0009 382.598,-386.7675 377.6055,-386.4941 377.6055,-386.4941 377.6055,-386.4941 382.598,-386.7675 377.3595,-390.9874 387.5905,-387.0409 387.5905,-387.0409"/>
<polygon fill="#f05359" stroke="#f05359" points="387.5905,-361.9591 377.3595,-358.0126 382.598,-362.2325 377.6055,-362.5059 377.6055,-362.5059 377.6055,-362.5059 382.598,-362.2325 377.8516,-366.9991 387.5905,-361.9591 387.5905,-361.9591"/>
<text text-anchor="middle" x="566.1833" y="-370.3" font-family="Times,serif" font-size="14.00" fill="#000000">pending_friends</text>
</g>
<!-- User&#45;&gt;User -->
<g id="edge10" class="edge">
<title>User&#45;&gt;User</title>
<path fill="none" stroke="#7434b9" d="M387.7092,-389.4246C481.4781,-396.435 611.6731,-391.4601 611.6731,-374.5 611.6731,-357.5399 481.4781,-352.565 387.7092,-359.5754"/>
<polygon fill="#7434b9" stroke="#7434b9" points="387.58,-389.4143 377.974,-384.1251 382.5962,-389.0124 377.6123,-388.6106 377.6123,-388.6106 377.6123,-388.6106 382.5962,-389.0124 377.2506,-393.096 387.58,-389.4143 387.58,-389.4143"/>
<polygon fill="#7434b9" stroke="#7434b9" points="387.58,-359.5857 377.2506,-355.904 382.5962,-359.9876 377.6123,-360.3894 377.6123,-360.3894 377.6123,-360.3894 382.5962,-359.9876 377.974,-364.8749 387.58,-359.5857 387.58,-359.5857"/>
<text text-anchor="middle" x="680.8767" y="-370.3" font-family="Times,serif" font-size="14.00" fill="#000000">inverse_pending_friends</text>
</g>
</g>
</svg>
